<?xml version="1.0" encoding="UTF-8"?>
<svg width="71px" height="27px" viewBox="0 0 71 27" version="1.1" xmlns="http://www.w3.org/2000/svg" xmlns:xlink="http://www.w3.org/1999/xlink">
    <!-- Generator: Sketch 41.1 (35376) - http://www.bohemiancoding.com/sketch -->
    <title>Page 1</title>
    <desc>Created with Sketch.</desc>
    <defs>
        <polygon id="path-1" points="0 26.35848 70.4313302 26.35848 70.4313302 -0.00027 0 -0.00027"></polygon>
    </defs>
    <g id="Page-1" stroke="none" stroke-width="1" fill="none" fill-rule="evenodd">
        <g id="main---v2" transform="translate(-155.000000, -723.000000)">
            <g id="Page-1" transform="translate(155.000000, 723.000000)">
                <path d="M6.83153962,15.3862875 L6.83153962,21.2034375 L9.73450189,21.2034375 C11.9549264,21.2034375 12.9797377,20.1706875 12.9797377,18.3468375 L12.9797377,18.2091375 C12.9797377,16.3501875 11.9890868,15.3862875 9.52953962,15.3862875 L6.83153962,15.3862875 Z M6.83153962,5.9896125 L6.83153962,11.0831625 L9.49604906,11.0831625 C11.6816434,11.0831625 12.5014925,10.3264875 12.5014925,8.5708125 L12.5014925,8.4331125 C12.5014925,6.7462875 11.6133226,5.9896125 9.49604906,5.9896125 L6.83153962,5.9896125 Z M6.83153962,1.3078125 L10.8959547,1.3078125 C16.6690585,1.3078125 19.1279358,3.9241125 19.1279358,7.7446125 L19.1279358,7.8823125 C19.1279358,10.6363125 17.7273604,12.4608375 14.9952,13.1830875 C18.0006434,13.6994625 19.8794642,15.5239875 19.8794642,18.9313875 L19.8794642,19.0697625 C19.8794642,23.4754875 17.0441528,25.9189875 10.9984358,25.9189875 L6.83153962,25.9189875 L6.83153962,1.3078125 Z" id="Fill-1" fill="#00DBFC"></path>
                <path d="M6.83153962,15.3862875 L6.83153962,21.2034375 M6.83153962,5.9896125 L6.83153962,11.0831625 M6.83153962,25.9189875 L0.000133962264,25.9189875 L0.000133962264,1.3078125 L6.83153962,1.3078125" id="Fill-3" fill="#239AFF"></path>
                <mask id="mask-2" fill="white">
                    <use xlink:href="#path-1"></use>
                </mask>
                <g id="Clip-6"></g>
                <polygon id="Fill-5" fill="#239AFF" mask="url(#mask-2)" points="22.8184623 25.919055 28.8983396 25.919055 28.8983396 -0.00027 22.8184623 -0.00027"></polygon>
                <path d="M52.4093868,23.035185 L55.8240849,26.267085 C55.958717,26.39466 56.1697075,26.38791 56.2963019,26.252235 L70.3409057,11.182185 C70.4668302,11.047185 70.4601321,10.833885 70.3261698,10.706985 L66.9108019,7.475085 C66.7768396,7.34751 66.5651792,7.35426 66.4392547,7.489935 L52.3946509,22.559985 C52.2687264,22.694985 52.2747547,22.908285 52.4093868,23.035185" id="Fill-7" fill="#239AFF" mask="url(#mask-2)"></path>
                <path d="M70.3241604,23.036805 L66.9128113,26.266005 C66.7775094,26.39358 66.5645094,26.38683 66.4372453,26.25048 L52.3959906,11.183805 C52.2693962,11.047455 52.2760943,10.83348 52.4113962,10.70523 L55.8227453,7.476705 C55.9580472,7.348455 56.1703774,7.355205 56.2976415,7.491555 L70.3388962,22.55823 C70.4661604,22.69458 70.4594623,22.908555 70.3241604,23.036805" id="Fill-8" fill="#00DBFC" mask="url(#mask-2)"></path>
                <path d="M41.503117,21.2710725 C39.0984943,21.2710725 37.1493434,19.3068225 37.1493434,16.8835725 C37.1493434,14.4603225 39.0984943,12.4960725 41.503117,12.4960725 C43.9077396,12.4960725 45.8568906,14.4603225 45.8568906,16.8835725 C45.8568906,19.3068225 43.9077396,21.2710725 41.503117,21.2710725 M41.4870415,7.4349225 C35.9537302,7.4349225 31.740617,11.0832975 31.740617,16.8666975 L31.740617,17.1414225 C31.740617,22.9585725 35.9537302,26.3322225 41.4528811,26.3322225 C46.9527019,26.3322225 51.1651453,22.8215475 51.1651453,16.9692975 L51.1651453,16.6945725 C51.1651453,10.9800225 46.9861925,7.4349225 41.4870415,7.4349225" id="Fill-9" fill="#00DBFC" mask="url(#mask-2)"></path>
            </g>
        </g>
    </g>
</svg>