<?xml version="1.0" encoding="UTF-8"?>
<svg width="24px" height="24px" viewBox="0 0 24 24" version="1.1" xmlns="http://www.w3.org/2000/svg" xmlns:xlink="http://www.w3.org/1999/xlink">
    <!-- Generator: sketchtool 41.1 (35376) - http://www.bohemiancoding.com/sketch -->
    <title>ED73E7D5-214E-4B6C-B591-0E1240741B85</title>
    <desc>Created with sketchtool.</desc>
    <defs></defs>
    <g id="Page-1" stroke="none" stroke-width="1" fill="none" fill-rule="evenodd" opacity="0.699999988">
        <g id="main---v2" transform="translate(-580.000000, -3505.000000)" fill="#000000">
            <path d="M592,3505 C585.37,3505 580,3510.50583 580,3517.30353 C580,3522.74784 583.435,3527.34628 588.205,3528.9765 C588.805,3529.08415 589.03,3528.71505 589.03,3528.39208 C589.03,3528.09987 589.015,3527.13097 589.015,3526.10055 C586,3526.66959 585.22,3525.34696 584.98,3524.65488 C584.845,3524.30116 584.26,3523.20922 583.75,3522.91701 C583.33,3522.68632 582.73,3522.11728 583.735,3522.1019 C584.68,3522.08652 585.355,3522.99391 585.58,3523.36301 C586.66,3525.22392 588.385,3524.70102 589.075,3524.37805 C589.18,3523.57832 589.495,3523.04005 589.84,3522.73246 C587.17,3522.42487 584.38,3521.36369 584.38,3516.65759 C584.38,3515.31958 584.845,3514.21227 585.61,3513.35102 C585.49,3513.04343 585.07,3511.78232 585.73,3510.09058 C585.73,3510.09058 586.735,3509.76762 589.03,3511.3517 C589.99,3511.07487 591.01,3510.93645 592.03,3510.93645 C593.05,3510.93645 594.07,3511.07487 595.03,3511.3517 C597.325,3509.75224 598.33,3510.09058 598.33,3510.09058 C598.99,3511.78232 598.57,3513.04343 598.45,3513.35102 C599.215,3514.21227 599.68,3515.3042 599.68,3516.65759 C599.68,3521.37907 596.875,3522.42487 594.205,3522.73246 C594.64,3523.11694 595.015,3523.85515 595.015,3525.00861 C595.015,3526.65421 595,3527.97684 595,3528.39208 C595,3528.71505 595.225,3529.09953 595.825,3528.9765 C600.565,3527.34628 604,3522.73246 604,3517.30353 C604,3510.50583 598.63,3505 592,3505 L592,3505 Z" id="github"></path>
        </g>
    </g>
</svg>