<?xml version="1.0" encoding="UTF-8"?>
<svg width="24px" height="24px" viewBox="0 0 24 24" version="1.1" xmlns="http://www.w3.org/2000/svg" xmlns:xlink="http://www.w3.org/1999/xlink">
    <!-- Generator: Sketch 41.1 (35376) - http://www.bohemiancoding.com/sketch -->
    <title>gitter</title>
    <desc>Created with Sketch.</desc>
    <defs></defs>
    <g id="Page-1" stroke="none" stroke-width="1" fill="none" fill-rule="evenodd" opacity="0.699999988">
        <g id="main---v2" transform="translate(-629.000000, -3489.000000)" fill="#000000">
            <g id="gitter" transform="translate(629.000000, 3489.000000)">
                <g id="Layer_1">
                    <path d="M21.5627645,0 L2.43723554,0 C1.09120451,0 0,1.09120451 0,2.43723554 L0,21.5627645 C0,22.9087955 1.09120451,24 2.43723554,24 L21.5627645,24 C22.9087955,24 24,22.9087955 24,21.5627645 L24,2.43723554 C24,1.09120451 22.9087955,0 21.5627645,0 Z M9.37658674,13.8787024 L8.25952045,13.8787024 L8.25952045,5.61918195 L9.37658674,5.61918195 L9.37658674,13.8787024 Z M11.6107193,18.3808181 L10.493653,18.3808181 L10.493653,7.51480959 L11.6107193,7.51480959 L11.6107193,18.3808181 Z M13.8787024,18.3808181 L12.7616361,18.3808181 L12.7616361,7.51480959 L13.8787024,7.51480959 L13.8787024,18.3808181 Z M16.112835,13.8787024 L14.9957687,13.8787024 L14.9957687,7.51480959 L16.112835,7.51480959 L16.112835,13.8787024 Z" id="Shape"></path>
                </g>
            </g>
        </g>
    </g>
</svg>