<?xml version="1.0" encoding="UTF-8"?>
<svg width="12px" height="16px" viewBox="0 0 12 16" version="1.1" xmlns="http://www.w3.org/2000/svg" xmlns:xlink="http://www.w3.org/1999/xlink">
    <!-- Generator: Sketch 41.1 (35376) - http://www.bohemiancoding.com/sketch -->
    <title>repo</title>
    <desc>Created with Sketch.</desc>
    <defs></defs>
    <g id="Page-1" stroke="none" stroke-width="1" fill="none" fill-rule="evenodd" opacity="0.900000036">
        <g id="main---v2" transform="translate(-215.000000, -2669.000000)" fill="#0097FE">
            <path d="M219,2678 L218,2678 L218,2677 L219,2677 L219,2678 L219,2678 Z M219,2675 L218,2675 L218,2676 L219,2676 L219,2675 L219,2675 Z M219,2673 L218,2673 L218,2674 L219,2674 L219,2673 L219,2673 Z M219,2671 L218,2671 L218,2672 L219,2672 L219,2671 L219,2671 Z M227,2670 L227,2682 C227,2682.55 226.55,2683 226,2683 L221,2683 L221,2685 L219.5,2683.5 L218,2685 L218,2683 L216,2683 C215.45,2683 215,2682.55 215,2682 L215,2670 C215,2669.45 215.45,2669 216,2669 L226,2669 C226.55,2669 227,2669.45 227,2670 L227,2670 Z M226,2680 L216,2680 L216,2682 L218,2682 L218,2681 L221,2681 L221,2682 L226,2682 L226,2680 L226,2680 Z M226,2670 L217,2670 L217,2679 L226,2679 L226,2670 L226,2670 Z" id="repo"></path>
        </g>
    </g>
</svg>