<?xml version="1.0" encoding="UTF-8"?>
<svg width="23px" height="20px" viewBox="0 0 23 20" version="1.1" xmlns="http://www.w3.org/2000/svg" xmlns:xlink="http://www.w3.org/1999/xlink">
    <!-- Generator: sketchtool 41.1 (35376) - http://www.bohemiancoding.com/sketch -->
    <title>52F5B864-5C6F-4B3D-9994-F75B2BF43779</title>
    <desc>Created with sketchtool.</desc>
    <defs></defs>
    <g id="Page-1" stroke="none" stroke-width="1" fill="none" fill-rule="evenodd" opacity="0.699999988">
        <g id="main---v2" transform="translate(-629.000000, -3508.000000)" fill="#000000">
            <path d="M629,3525.10254 C629.179688,3525.13249 629.363118,3525.1512 629.550293,3525.15869 C629.737468,3525.16618 629.928384,3525.16992 630.123047,3525.16992 C631.231125,3525.16992 632.283035,3524.99024 633.278809,3524.63086 C634.274582,3524.27148 635.176754,3523.77735 635.985352,3523.14844 C634.952143,3523.13346 634.034997,3522.81901 633.233887,3522.20508 C632.432776,3521.59114 631.882488,3520.8125 631.583008,3519.86914 C631.717774,3519.89909 631.860025,3519.92155 632.009766,3519.93652 C632.159506,3519.9515 632.309244,3519.95898 632.458984,3519.95898 C632.683595,3519.95898 632.896972,3519.94401 633.099121,3519.91406 C633.301271,3519.88411 633.50716,3519.84668 633.716797,3519.80176 C632.638666,3519.57715 631.736495,3519.03435 631.010254,3518.17334 C630.284013,3517.31233 629.920898,3516.31283 629.920898,3515.1748 L629.920898,3515.10742 C630.235353,3515.28711 630.572264,3515.42562 630.931641,3515.52295 C631.291017,3515.62028 631.665363,3515.67643 632.054688,3515.69141 C631.425778,3515.27213 630.920412,3514.7181 630.538574,3514.0293 C630.156736,3513.34049 629.96582,3512.58431 629.96582,3511.76074 C629.96582,3511.34147 630.021972,3510.92969 630.134277,3510.52539 C630.246583,3510.12109 630.400064,3509.74675 630.594727,3509.40234 C631.178714,3510.10612 631.830075,3510.75 632.548828,3511.33398 C633.267582,3511.91797 634.038733,3512.42334 634.862305,3512.8501 C635.685877,3513.27686 636.558101,3513.61751 637.479004,3513.87207 C638.399907,3514.12663 639.347,3514.27637 640.320312,3514.32129 C640.290364,3514.15657 640.26416,3513.98438 640.241699,3513.80469 C640.219238,3513.625 640.208008,3513.43783 640.208008,3513.24316 C640.208008,3512.59928 640.331542,3511.9891 640.578613,3511.4126 C640.825685,3510.8361 641.162596,3510.33447 641.589355,3509.90771 C642.016115,3509.48095 642.513995,3509.14404 643.083008,3508.89697 C643.652021,3508.6499 644.265947,3508.52637 644.924805,3508.52637 C645.598636,3508.52637 646.235023,3508.66113 646.833984,3508.93066 C647.432946,3509.2002 647.942055,3509.56705 648.361328,3510.03125 C648.900393,3509.92643 649.420733,3509.77669 649.922363,3509.58203 C650.423993,3509.38737 650.906899,3509.15527 651.371094,3508.88574 C651.191405,3509.42481 650.921877,3509.91894 650.5625,3510.36816 C650.203123,3510.81739 649.77637,3511.19173 649.282227,3511.49121 C649.761396,3511.43131 650.229327,3511.33773 650.686035,3511.21045 C651.142743,3511.08317 651.580727,3510.92969 652,3510.75 C651.685545,3511.2142 651.329917,3511.65218 650.933105,3512.06396 C650.536294,3512.47575 650.105797,3512.85384 649.641602,3513.19824 C649.641602,3513.28809 649.645345,3513.38542 649.652832,3513.49023 C649.660319,3513.59505 649.664062,3513.69987 649.664062,3513.80469 C649.664062,3515.36199 649.372073,3516.93798 648.788086,3518.53271 C648.204099,3520.12745 647.343105,3521.56868 646.205078,3522.85645 C645.067052,3524.14421 643.663257,3525.19612 641.993652,3526.01221 C640.324048,3526.82829 638.403657,3527.23633 636.232422,3527.23633 C635.573564,3527.23633 634.922204,3527.18766 634.27832,3527.09033 C633.634437,3526.993 633.00928,3526.85449 632.402832,3526.6748 C631.796384,3526.49512 631.208662,3526.27051 630.639648,3526.00098 C630.070635,3525.73144 629.524091,3525.43197 629,3525.10254 Z" id="twitter"></path>
        </g>
    </g>
</svg>